<?xml version="1.0" standalone="no"?>
<!DOCTYPE svg PUBLIC "-//W3C//DTD SVG 20010904//EN"
 "http://www.w3.org/TR/2001/REC-SVG-20010904/DTD/svg10.dtd">
<svg version="1.0" xmlns="http://www.w3.org/2000/svg"
 width="543.000000pt" height="314.000000pt" viewBox="0 0 543.000000 314.000000"
 preserveAspectRatio="xMidYMid meet">

<g transform="translate(0.000000,314.000000) scale(0.100000,-0.100000)"
fill="#0030C2" stroke="none">
<path d="M655 3131 c-289 -48 -487 -197 -545 -410 -15 -58 -15 -208 0 -274 18
-73 65 -163 97 -184 60 -40 174 -8 208 57 21 41 19 74 -11 148 -22 56 -25 77
-22 148 3 72 7 87 33 126 68 97 178 138 369 138 68 0 117 -4 121 -10 4 -6 0
-57 -9 -113 -8 -56 -24 -174 -36 -262 -20 -155 -37 -267 -45 -311 -4 -19 -13
-22 -65 -26 -45 -3 -66 -10 -85 -28 -33 -31 -48 -82 -41 -134 9 -57 41 -87
100 -93 54 -7 53 -3 31 -156 -29 -195 -66 -298 -130 -362 -92 -91 -218 -86
-307 13 -21 23 -59 78 -84 122 -50 86 -74 110 -112 110 -104 0 -157 -159 -97
-289 31 -66 123 -157 196 -193 117 -58 244 -77 374 -54 126 22 216 68 293 151
100 106 150 233 191 487 15 86 29 159 33 163 3 3 26 1 49 -5 80 -21 136 -94
246 -319 109 -224 161 -308 233 -375 151 -141 400 -149 594 -20 l54 36 41 -40
c50 -49 94 -70 167 -82 112 -18 220 24 307 121 l56 62 18 -33 c63 -116 167
-172 278 -148 66 14 110 37 185 97 l63 50 28 -39 c65 -89 193 -134 303 -105
59 16 99 38 148 83 l27 25 -5 -39 c-4 -22 -15 -47 -28 -57 -11 -10 -79 -66
-149 -125 -305 -252 -454 -471 -465 -683 -4 -72 -1 -93 18 -137 70 -163 278
-207 447 -95 60 39 143 142 188 231 73 147 153 394 200 622 15 69 30 132 34
140 4 8 84 67 177 131 l169 116 13 -31 c7 -16 30 -54 52 -82 117 -156 359
-139 447 30 12 22 17 26 24 15 5 -8 9 -24 9 -37 0 -69 63 -115 156 -115 59 0
99 17 128 56 18 24 21 48 27 195 8 175 18 272 50 462 11 63 22 149 26 190 5
71 4 78 -20 105 -24 28 -31 30 -113 35 l-88 5 -8 32 c-12 47 -38 56 -132 50
-90 -5 -158 -28 -244 -83 -171 -108 -309 -323 -338 -527 -6 -47 -7 -48 -145
-152 -97 -72 -139 -99 -139 -87 0 19 15 115 65 426 43 266 43 288 9 323 -24
24 -30 25 -106 21 -78 -5 -80 -4 -91 21 -22 52 -36 61 -98 61 -169 0 -331 -88
-459 -248 -92 -116 -170 -317 -170 -438 0 -47 -3 -51 -65 -110 -35 -34 -81
-68 -101 -74 -50 -17 -88 10 -92 66 -5 55 15 212 48 383 35 184 43 261 31 294
-13 35 -67 51 -148 44 -62 -5 -65 -4 -74 22 -20 50 -37 61 -103 61 -236 0
-474 -192 -577 -465 -27 -72 -49 -187 -49 -255 0 -57 -1 -60 -37 -85 -60 -41
-133 -58 -185 -45 -101 27 -150 85 -263 310 -37 74 -84 158 -105 186 -42 56
-113 108 -172 126 -45 13 -48 23 -10 33 49 12 185 86 266 143 95 69 222 200
294 305 101 146 232 458 232 553 0 34 -6 51 -29 76 -24 28 -36 32 -90 36 -73
5 -134 -14 -174 -56 -16 -17 -42 -72 -66 -137 -138 -392 -289 -609 -494 -710
-79 -39 -224 -82 -236 -70 -3 4 57 448 81 592 9 56 12 62 38 68 47 10 73 48
78 113 4 51 1 62 -22 89 -29 34 -93 62 -203 89 -77 18 -385 28 -468 15z m2235
-1134 c0 -33 -105 -511 -119 -543 -64 -143 -181 -180 -236 -74 -35 67 -8 276
50 389 69 135 182 229 278 231 15 0 27 -1 27 -3z m1120 -9 c0 -12 -36 -213
-71 -392 -10 -54 -28 -118 -39 -143 -55 -124 -142 -167 -212 -104 -32 29 -33
32 -36 124 -5 115 12 190 68 302 45 94 112 166 185 201 54 26 105 31 105 12z
m1126 -10 c-7 -33 -34 -177 -41 -223 -15 -94 -59 -254 -87 -312 -58 -124 -153
-159 -212 -80 -45 61 -24 271 40 399 42 84 101 157 157 192 55 36 75 43 120
45 23 1 27 -2 23 -21z m-1301 -1175 c-3 -10 -13 -46 -21 -81 -23 -99 -79 -263
-114 -331 -42 -85 -104 -151 -141 -151 -77 0 -90 106 -28 237 40 84 102 164
203 261 84 80 115 100 101 65z"/>
</g>
</svg>
